{"title":"Family Album (2015) - 720p - DVDRip - x264 - AC3 [DDR]","uid":14999595,"size":1105439731,"categoryP":"video","categoryS":"movies","magnet":"?xt=urn:btih:79184db9eeeb001f85125cbdd0474838f7d15509&amp;dn=Family+Album+%282015%29+-+720p+-+DVDRip+-+x264+-+AC3+%5BDDR%5D&amp;tr=udp%3A%2F%2Ftracker.leechers-paradise.org%3A6969&amp;tr=udp%3A%2F%2Fzer0day.ch%3A1337&amp;tr=udp%3A%2F%2Fopen.demonii.com%3A1337&amp;tr=udp%3A%2F%2Ftracker.coppersurfer.tk%3A6969&amp;tr=udp%3A%2F%2Fexodus.desync.com%3A6969","seeders":0,"leechers":1,"uploader":"SaM","files":15,"time":1466369480,"description":"(A film by Mainak Bhaumik)\r\n\r\nDVD Rip - x264 - No Sub\r\n\r\n2.1 AC3 - MKV - 1 GB\r\n\r\n*2015*\r\n\r\n! || |= ®\r\n\r\nFormat : Matroska\r\nFormat version : Version 2\r\nFile size : 1.00 GiB\r\nDuration : 1h 29mn\r\nOverall bit rate : 1 595 Kbps\r\nEncoded date : UTC 2016-06-15 17:57:34\r\nWriting application : mkvmerge v8.5.2 ('Crosses') 32bit\r\nWriting library : libebml v1.3.3 + libmatroska v1.4.4\r\nDURATION : 01:29:59.232000000\r\nNUMBER_OF_FRAMES : 168726\r\nNUMBER_OF_BYTES : 129581568\r\n_STATISTICS_WRITING_APP : mkvmerge v8.5.2 ('Crosses') 32bit\r\n_STATISTICS_WRITING_DATE_UTC : 2016-06-15 17:57:34\r\n_STATISTICS_TAGS : BPS DURATION NUMBER_OF_FRAMES NUMBER_OF_BYTES\r\n\r\nVideo\r\nID : 1\r\nFormat : AVC\r\nFormat/Info : Advanced Video Codec\r\nFormat profile :   \r\nFormat settings, CABAC : Yes\r\nFormat settings, ReFrames : 6 frames\r\nCodec ID : V_MPEG4/ISO/AVC\r\nDuration : 1h 29mn\r\nBit rate : 1 400 Kbps\r\nWidth : 720 pixels\r\nHeight : 320 pixels\r\nDisplay aspect ratio : 2.25:1\r\nFrame rate mode : Constant\r\nFrame rate : 25.000 fps\r\ncolor space : YUV\r\nChroma subsampling : 4:2:0\r\nBit depth : 8 bits\r\nScan type : Progressive\r\nBits/(Pixel*Frame) : 0.243\r\nStream size : 882 MiB (86%)\r\nTitle : Family Album (2014) - DVDRip - x264 - AC3 [DDR]\r\nWriting library : x264 core 148 r2638 7599210\r\nEncoding settings : cabac=1 / ref=6 / deblock=1:0:0 / analyse=0x3:0x133 / me=umh / subme=9 / psy=1 / psy_rd=1.00:0.15 / mixed_ref=1 / me_range=20 / chroma_me=1 / trellis=2 / 8x8dct=1 / cqm=0 / deadzone=21,11 / fast_pskip=1 / chroma_qp_offset=-3 / threads=10 / lookahead_threads=1 / sliced_threads=0 / nr=0 / decimate=1 / interlaced=0 / bluray_compat=0 / constrained_intra=0 / bframes=3 / b_pyramid=2 / b_adapt=2 / b_bias=0 / direct=3 / weightb=1 / open_gop=0 / weightp=2 / keyint=250 / keyint_min=25 / scenecut=40 / intra_refresh=0 / rc_lookahead=60 / rc=2pass / mbtree=1 / bitrate=1400 / ratetol=1.0 / qcomp=0.60 / qpmin=10 / qpmax=69 / qpstep=4 / cplxblur=20.0 / qblur=0.5 / vbv_maxrate=25000 / vbv_bufsize=25000 / nal_hrd=none / filler=0 / ip_ratio=1.40 / aq=1:1.00\r\nDefault : Yes\r\nForced : No\r\ncolor primaries : Generic film\r\ncolor range : Limited\r\n\r\nAudio\r\nID : 2\r\nFormat : AC-3\r\nFormat/Info : Audio Coding 3\r\nMode extension : CM (complete main)\r\nFormat settings, Endianness : Big\r\nCodec ID : A_AC3\r\nDuration : 1h 29mn\r\nBit rate mode : Constant\r\nBit rate : 192 Kbps\r\nChannel(s) : 2 channels\r\nChannel positions : Front: L R\r\nSampling rate : 48.0 KHz\r\nBit depth : 16 bits\r\nCompression mode : Lossy\r\nStream size : 124 MiB (12%)\r\nTitle : 2.1 AC3 [DDR]\r\nLanguage : Bengali\r\nDefault : Yes\r\nForced : No\r\n \nhttps://extraimago.com/image/apHb \nhttps://extraimago.com/image/apHI \nhttps://extraimago.com/image/apHl \nhttps://extraimago.com/image/apHi \nhttps://extraimago.com/image/apHm \nhttps://extraimago.com/image/apHR \nhttps://extraimago.com/image/apHQ \nhttps://extraimago.com/image/apHL \nhttps://extraimago.com/image/apHy \nhttps://extraimago.com/image/apHq","torrent":{"xt":"urn:btih:79184db9eeeb001f85125cbdd0474838f7d15509","amp;dn":"Family+Album+%282015%29+-+720p+-+DVDRip+-+x264+-+AC3+%5BDDR%5D","amp;tr":["udp%3A%2F%2Ftracker.leechers-paradise.org%3A6969","udp%3A%2F%2Fzer0day.ch%3A1337","udp%3A%2F%2Fopen.demonii.com%3A1337","udp%3A%2F%2Ftracker.coppersurfer.tk%3A6969","udp%3A%2F%2Fexodus.desync.com%3A6969"],"infoHash":"79184db9eeeb001f85125cbdd0474838f7d15509","infoHashBuffer":{"type":"Buffer","data":[121,24,77,185,238,235,0,31,133,18,92,189,208,71,72,56,247,209,85,9]},"announce":[],"urlList":[]}}